<?xml version="1.0" standalone="no"?>
<!DOCTYPE svg PUBLIC "-//W3C//DTD SVG 20010904//EN"
 "http://www.w3.org/TR/2001/REC-SVG-20010904/DTD/svg10.dtd">
<svg version="1.0" xmlns="http://www.w3.org/2000/svg"
 width="860.000000pt" height="623.000000pt" viewBox="0 0 860.000000 623.000000"
 preserveAspectRatio="xMidYMid meet">

<g transform="translate(0.000000,623.000000) scale(0.100000,-0.100000)"
fill="#000000" stroke="none">
<path d="M4190 6137 c-19 -7 -51 -22 -70 -33 -19 -10 -616 -602 -1326 -1314
-1443 -1448 -1329 -1320 -1329 -1475 0 -71 4 -89 32 -146 77 -156 247 -238
399 -194 32 9 72 26 89 37 16 12 465 455 996 985 l966 965 6 -2313 c5 -2090 7
-2318 21 -2358 24 -66 76 -123 148 -162 61 -33 67 -34 173 -34 92 0 118 4 157
22 67 31 142 104 168 164 l21 51 6 2315 6 2315 966 -965 c531 -530 980 -974
997 -985 48 -33 147 -55 210 -47 117 14 229 99 282 213 22 47 27 71 27 137 0
155 114 28 -1329 1475 -1027 1030 -1302 1301 -1346 1325 -47 25 -68 30 -145
32 -58 2 -102 -1 -125 -10z"/>
</g>
</svg>
